<svg width="24" height="24" viewBox="0 0 24 24" fill="none" xmlns="http://www.w3.org/2000/svg">
<path d="M21.7746 20.6875L16.9654 15.8793C18.3593 14.2058 19.0543 12.0594 18.906 9.88649C18.7576 7.7136 17.7773 5.68155 16.1689 4.21306C14.5604 2.74457 12.4478 1.9527 10.2704 2.00219C8.09303 2.05167 6.01854 2.9387 4.4785 4.47874C2.93845 6.01878 2.05143 8.09327 2.00194 10.2707C1.95246 12.448 2.74432 14.5607 4.21281 16.1691C5.6813 17.7775 7.71335 18.7579 9.88624 18.9062C12.0591 19.0546 14.2056 18.3595 15.879 16.9656L20.6873 21.7748C20.7587 21.8462 20.8434 21.9028 20.9367 21.9415C21.03 21.9801 21.13 22 21.2309 22C21.3319 22 21.4319 21.9801 21.5251 21.9415C21.6184 21.9028 21.7032 21.8462 21.7746 21.7748C21.846 21.7034 21.9026 21.6187 21.9412 21.5254C21.9799 21.4321 21.9998 21.3321 21.9998 21.2312C21.9998 21.1302 21.9799 21.0302 21.9412 20.937C21.9026 20.8437 21.846 20.7589 21.7746 20.6875ZM3.55778 10.4736C3.55778 9.10583 3.96337 7.76878 4.72327 6.63151C5.48316 5.49425 6.56323 4.60787 7.82688 4.08444C9.09054 3.56102 10.481 3.42407 11.8225 3.69091C13.164 3.95775 14.3963 4.61639 15.3634 5.58355C16.3306 6.55071 16.9892 7.78295 17.2561 9.12444C17.5229 10.4659 17.3859 11.8564 16.8625 13.1201C16.3391 14.3837 15.4527 15.4638 14.3155 16.2237C13.1782 16.9836 11.8411 17.3892 10.4734 17.3892C8.63986 17.3872 6.88204 16.6579 5.58555 15.3614C4.28907 14.0649 3.55982 12.3071 3.55778 10.4736Z" fill="#9FA1AA"/>
</svg>
